<svg width="160" height="101" viewBox="0 0 160 101" fill="none" xmlns="http://www.w3.org/2000/svg">
<line y1="86.5" x2="160" y2="86.5" stroke="#8C8C8C"/>
<path d="M155.463 56.9657C155.73 57.1593 156.048 57.2546 156.37 57.2371C156.691 57.2197 156.998 57.0906 157.246 56.869L159.571 54.3528C159.706 54.2228 159.814 54.0634 159.888 53.8851C159.962 53.7068 160 53.5137 160 53.3183C160 53.123 159.962 52.9298 159.888 52.7515C159.814 52.5732 159.706 52.4139 159.571 52.2839L158.074 50.6299C157.26 49.6301 156.825 48.3349 156.858 47.0037V21.8158C156.87 21.5113 156.826 21.2072 156.726 20.9219C156.627 20.6366 156.475 20.376 156.28 20.1558C156.084 19.9349 155.849 19.7588 155.589 19.638C155.329 19.5172 155.049 19.4542 154.766 19.4527H152.801C152.517 19.4472 152.236 19.5029 151.973 19.6168C151.709 19.7306 151.47 19.9002 151.268 20.1155C150.862 20.5506 150.636 21.1429 150.644 21.7594V47.3643C150.649 49.2707 151.092 51.1458 151.933 52.8216C152.774 54.4974 153.987 55.9213 155.463 56.9657ZM143.408 56.9657C143.671 57.1629 143.988 57.2603 144.308 57.2428C144.629 57.2253 144.935 57.0939 145.179 56.869L147.517 54.3528C147.65 54.2229 147.756 54.0643 147.829 53.8874C147.901 53.7104 147.939 53.519 147.939 53.3254C147.939 53.1318 147.901 52.9404 147.829 52.7634C147.756 52.5864 147.65 52.4279 147.517 52.298L146.018 50.6299C145.203 49.6362 144.769 48.3447 144.804 47.0178V21.8702C144.812 21.2537 144.586 20.6614 144.178 20.2263C143.976 20.011 143.737 19.8414 143.473 19.7276C143.21 19.6137 142.929 19.558 142.645 19.5635H140.734C140.451 19.5579 140.17 19.6138 139.907 19.728C139.644 19.8422 139.406 20.0124 139.205 20.2283C138.8 20.6614 138.579 21.2557 138.59 21.8702V47.4066C138.598 49.3063 139.042 51.1741 139.883 52.8425C140.724 54.5109 141.935 55.9276 143.408 56.9657ZM106.597 32.1242H103.575C103.151 32.1167 102.737 32.2613 102.398 32.5356C102.059 32.8098 101.814 33.198 101.701 33.6392L97.9792 46.6572L94.103 33.5828C93.9733 33.1569 93.7222 32.7864 93.3855 32.5243C93.0489 32.2623 92.644 32.1222 92.2291 32.1242H89.645C88.8059 32.1242 88.0639 32.7165 87.8233 33.5828L83.8837 46.6149L80.1621 33.6392C80.0514 33.1967 79.8067 32.8071 79.467 32.5325C79.1274 32.2579 78.7124 32.1142 78.2883 32.1242H75.2772C75.0636 32.1102 74.8501 32.1537 74.6558 32.2507C74.4615 32.3478 74.2926 32.4953 74.1641 32.6803C74.036 32.8645 73.9526 33.0805 73.9213 33.3084C73.89 33.5364 73.912 33.7692 73.9851 33.9857L80.6264 55.7992C80.8781 56.6554 81.6127 57.2437 82.448 57.2578H85.2914C86.1807 57.3041 86.9806 56.6796 87.2155 55.7569L90.937 42.3642L94.8152 55.7569C95.0427 56.6534 95.809 57.2719 96.6741 57.2578H99.4895C100.327 57.2397 101.059 56.6534 101.313 55.7992L107.889 33.9857C107.962 33.7692 107.984 33.5364 107.953 33.3084C107.922 33.0805 107.838 32.8645 107.71 32.6803C107.582 32.4953 107.413 32.3478 107.218 32.2507C107.024 32.1537 106.811 32.1102 106.597 32.1242ZM131.624 32.1242H129.7C128.529 32.1242 127.574 33.1315 127.556 34.3886C125.668 32.5994 123.243 31.6115 120.732 31.6085C114.609 31.6085 109.647 37.5011 109.647 44.683C109.647 51.8668 114.607 57.8541 120.732 57.8541C123.256 57.8461 125.687 56.8268 127.556 54.9934L129.519 57.3545H131.626C132.196 57.3545 132.745 57.1047 133.142 56.6615C133.539 56.2183 133.751 55.622 133.731 55.0055V34.445C133.736 34.1394 133.685 33.8358 133.579 33.5523C133.473 33.2688 133.316 33.0113 133.116 32.7951C132.915 32.5788 132.676 32.408 132.414 32.2928C132.151 32.1776 131.87 32.1203 131.587 32.1242H131.624ZM121.766 52.0884C118.535 52.0884 115.964 48.8249 115.964 44.7958C115.964 40.7667 118.548 37.5011 121.766 37.5011C124.983 37.5011 127.517 40.7244 127.517 44.7938C127.517 48.8652 124.932 52.0884 121.766 52.0884Z" fill="black"/>
<path d="M4.03125 94.0098H1.86914L1.85742 93.1016H3.82031C4.14453 93.1016 4.42773 93.0469 4.66992 92.9375C4.91211 92.8281 5.09961 92.6719 5.23242 92.4688C5.36914 92.2617 5.4375 92.0156 5.4375 91.7305C5.4375 91.418 5.37695 91.1641 5.25586 90.9688C5.13867 90.7695 4.95703 90.625 4.71094 90.5352C4.46875 90.4414 4.16016 90.3945 3.78516 90.3945H2.12109V98H0.990234V89.4688H3.78516C4.22266 89.4688 4.61328 89.5137 4.95703 89.6035C5.30078 89.6895 5.5918 89.8262 5.83008 90.0137C6.07227 90.1973 6.25586 90.4316 6.38086 90.7168C6.50586 91.002 6.56836 91.3438 6.56836 91.7422C6.56836 92.0938 6.47852 92.4121 6.29883 92.6973C6.11914 92.9785 5.86914 93.209 5.54883 93.3887C5.23242 93.5684 4.86133 93.6836 4.43555 93.7344L4.03125 94.0098ZM3.97852 98H1.42383L2.0625 97.0801H3.97852C4.33789 97.0801 4.64258 97.0176 4.89258 96.8926C5.14648 96.7676 5.33984 96.5918 5.47266 96.3652C5.60547 96.1348 5.67188 95.8633 5.67188 95.5508C5.67188 95.2344 5.61523 94.9609 5.50195 94.7305C5.38867 94.5 5.21094 94.3223 4.96875 94.1973C4.72656 94.0723 4.41406 94.0098 4.03125 94.0098H2.41992L2.43164 93.1016H4.63477L4.875 93.4297C5.28516 93.4648 5.63281 93.582 5.91797 93.7812C6.20312 93.9766 6.41992 94.2266 6.56836 94.5312C6.7207 94.8359 6.79688 95.1719 6.79688 95.5391C6.79688 96.0703 6.67969 96.5195 6.44531 96.8867C6.21484 97.25 5.88867 97.5273 5.4668 97.7188C5.04492 97.9062 4.54883 98 3.97852 98ZM21.585 90.2246L18.7608 98H17.6065L20.8584 89.4688H21.6026L21.585 90.2246ZM23.9522 98L21.1221 90.2246L21.1045 89.4688H21.8487L25.1123 98H23.9522ZM23.8057 94.8418V95.7676H19.0127V94.8418H23.8057ZM41.295 95.2871H42.42C42.3614 95.8262 42.2071 96.3086 41.9571 96.7344C41.7071 97.1602 41.3536 97.498 40.8966 97.748C40.4395 97.9941 39.8692 98.1172 39.1856 98.1172C38.6856 98.1172 38.2305 98.0234 37.8204 97.8359C37.4141 97.6484 37.0645 97.3828 36.7716 97.0391C36.4786 96.6914 36.252 96.2754 36.0919 95.791C35.9356 95.3027 35.8575 94.7598 35.8575 94.1621V93.3125C35.8575 92.7148 35.9356 92.1738 36.0919 91.6895C36.252 91.2012 36.4805 90.7832 36.7774 90.4355C37.0782 90.0879 37.4395 89.8203 37.8614 89.6328C38.2833 89.4453 38.7579 89.3516 39.2852 89.3516C39.9298 89.3516 40.4747 89.4727 40.92 89.7148C41.3653 89.957 41.711 90.293 41.9571 90.7227C42.2071 91.1484 42.3614 91.6426 42.42 92.2051H41.295C41.2403 91.8066 41.1387 91.4648 40.9903 91.1797C40.8419 90.8906 40.6309 90.668 40.3575 90.5117C40.0841 90.3555 39.7266 90.2773 39.2852 90.2773C38.9063 90.2773 38.5723 90.3496 38.2833 90.4941C37.9981 90.6387 37.7579 90.8438 37.5626 91.1094C37.3712 91.375 37.2266 91.6934 37.129 92.0645C37.0313 92.4355 36.9825 92.8477 36.9825 93.3008V94.1621C36.9825 94.5801 37.0255 94.9727 37.1114 95.3398C37.2012 95.707 37.336 96.0293 37.5157 96.3066C37.6954 96.584 37.9239 96.8027 38.2012 96.9629C38.4786 97.1191 38.8067 97.1973 39.1856 97.1973C39.6661 97.1973 40.0489 97.1211 40.3341 96.9688C40.6192 96.8164 40.8341 96.5977 40.9786 96.3125C41.127 96.0273 41.2325 95.6855 41.295 95.2871ZM55.0519 89.4688V98H53.921V89.4688H55.0519ZM60.2023 89.4688L56.6573 93.4473L54.6652 95.5156L54.4777 94.3086L55.9777 92.6562L58.8429 89.4688H60.2023ZM59.1124 98L55.9542 93.8398L56.628 92.9434L60.4601 98H59.1124ZM77.797 93.4648V94.0039C77.797 94.6445 77.7169 95.2188 77.5568 95.7266C77.3966 96.2344 77.1662 96.666 76.8654 97.0215C76.5646 97.377 76.2033 97.6484 75.7814 97.8359C75.3634 98.0234 74.8947 98.1172 74.3752 98.1172C73.8712 98.1172 73.4084 98.0234 72.9865 97.8359C72.5685 97.6484 72.2052 97.377 71.8966 97.0215C71.5919 96.666 71.3556 96.2344 71.1877 95.7266C71.0197 95.2188 70.9357 94.6445 70.9357 94.0039V93.4648C70.9357 92.8242 71.0177 92.252 71.1818 91.748C71.3498 91.2402 71.5861 90.8086 71.8908 90.4531C72.1955 90.0938 72.5568 89.8203 72.9748 89.6328C73.3966 89.4453 73.8595 89.3516 74.3634 89.3516C74.883 89.3516 75.3517 89.4453 75.7697 89.6328C76.1916 89.8203 76.5529 90.0938 76.8537 90.4531C77.1584 90.8086 77.3908 91.2402 77.5509 91.748C77.715 92.252 77.797 92.8242 77.797 93.4648ZM76.6779 94.0039V93.4531C76.6779 92.9453 76.6252 92.4961 76.5197 92.1055C76.4181 91.7148 76.2677 91.3867 76.0685 91.1211C75.8693 90.8555 75.6252 90.6543 75.3361 90.5176C75.0509 90.3809 74.7267 90.3125 74.3634 90.3125C74.0119 90.3125 73.6935 90.3809 73.4084 90.5176C73.1271 90.6543 72.8849 90.8555 72.6818 91.1211C72.4826 91.3867 72.3283 91.7148 72.2189 92.1055C72.1095 92.4961 72.0548 92.9453 72.0548 93.4531V94.0039C72.0548 94.5156 72.1095 94.9688 72.2189 95.3633C72.3283 95.7539 72.4845 96.084 72.6877 96.3535C72.8947 96.6191 73.1388 96.8203 73.4201 96.957C73.7052 97.0938 74.0236 97.1621 74.3752 97.1621C74.7423 97.1621 75.0685 97.0938 75.3537 96.957C75.6388 96.8203 75.8791 96.6191 76.0744 96.3535C76.2736 96.084 76.424 95.7539 76.5255 95.3633C76.6271 94.9688 76.6779 94.5156 76.6779 94.0039ZM90.5813 89.4688V98H89.4504V89.4688H90.5813ZM94.1555 93.3066V94.2324H90.3352V93.3066H94.1555ZM94.7355 89.4688V90.3945H90.3352V89.4688H94.7355ZM107.174 89.4688V98H106.043V89.4688H107.174ZM110.748 93.3066V94.2324H106.928V93.3066H110.748ZM111.328 89.4688V90.3945H106.928V89.4688H111.328ZM123.849 89.4688V98H122.718V89.4688H123.849ZM141.016 95.2871H142.141C142.082 95.8262 141.928 96.3086 141.678 96.7344C141.428 97.1602 141.075 97.498 140.617 97.748C140.16 97.9941 139.59 98.1172 138.907 98.1172C138.407 98.1172 137.951 98.0234 137.541 97.8359C137.135 97.6484 136.785 97.3828 136.492 97.0391C136.2 96.6914 135.973 96.2754 135.813 95.791C135.657 95.3027 135.578 94.7598 135.578 94.1621V93.3125C135.578 92.7148 135.657 92.1738 135.813 91.6895C135.973 91.2012 136.201 90.7832 136.498 90.4355C136.799 90.0879 137.16 89.8203 137.582 89.6328C138.004 89.4453 138.479 89.3516 139.006 89.3516C139.651 89.3516 140.196 89.4727 140.641 89.7148C141.086 89.957 141.432 90.293 141.678 90.7227C141.928 91.1484 142.082 91.6426 142.141 92.2051H141.016C140.961 91.8066 140.86 91.4648 140.711 91.1797C140.563 90.8906 140.352 90.668 140.078 90.5117C139.805 90.3555 139.448 90.2773 139.006 90.2773C138.627 90.2773 138.293 90.3496 138.004 90.4941C137.719 90.6387 137.479 90.8438 137.284 91.1094C137.092 91.375 136.948 91.6934 136.85 92.0645C136.752 92.4355 136.703 92.8477 136.703 93.3008V94.1621C136.703 94.5801 136.746 94.9727 136.832 95.3398C136.922 95.707 137.057 96.0293 137.237 96.3066C137.416 96.584 137.645 96.8027 137.922 96.9629C138.2 97.1191 138.528 97.1973 138.907 97.1973C139.387 97.1973 139.77 97.1211 140.055 96.9688C140.34 96.8164 140.555 96.5977 140.7 96.3125C140.848 96.0273 140.953 95.6855 141.016 95.2871ZM159.062 97.0801V98H154.544V97.0801H159.062ZM154.773 89.4688V98H153.642V89.4688H154.773ZM158.464 93.1367V94.0566H154.544V93.1367H158.464ZM159.003 89.4688V90.3945H154.544V89.4688H159.003Z" fill="black"/>
<path d="M51.6845 19.5635H49.7977C49.5142 19.5579 49.2326 19.6137 48.9694 19.7275C48.7062 19.8414 48.4667 20.0109 48.2651 20.2263C47.8586 20.6614 47.6311 21.2537 47.6405 21.8701V34.3744C45.7525 32.5853 43.3277 31.5974 40.8164 31.5944C34.6934 31.6246 29.7189 37.5151 29.7189 44.6426C29.7189 51.7701 34.6804 57.7714 40.8052 57.7714C43.3302 57.7602 45.7683 56.7742 47.6796 54.9914L49.5907 57.298H51.6845C51.9671 57.3057 52.2482 57.2514 52.5108 57.1385C52.7734 57.0255 53.0121 56.8563 53.2125 56.6409C53.4129 56.4255 53.5708 56.1685 53.6767 55.8853C53.7826 55.6021 53.8344 55.2987 53.8287 54.9934V21.8701C53.8399 21.2557 53.6162 20.6614 53.2134 20.2263C53.0127 20.0107 52.774 19.8409 52.5113 19.727C52.2487 19.6132 51.9675 19.5575 51.6845 19.5635ZM41.8643 52.036C38.635 52.036 36.0638 48.7704 36.0638 44.7413C36.0638 40.7122 38.648 37.4607 41.8643 37.4607C45.0824 37.4607 47.6144 40.7243 47.6144 44.7413C47.6144 48.7563 45.0302 52.034 41.8643 52.034V52.036ZM22.9098 29.5677C23.6324 29.5716 24.3398 29.344 24.9428 28.9137C25.5457 28.4835 26.0172 27.8698 26.2976 27.1503C26.8681 25.6796 26.5586 23.9874 25.5145 22.8593C25.0021 22.3073 24.3501 21.9313 23.6405 21.7786C22.9309 21.6259 22.1954 21.7033 21.5264 22.0011C20.8587 22.2966 20.2874 22.7999 19.8851 23.447C19.4827 24.0941 19.2674 24.8558 19.2666 25.6353C19.2666 27.801 20.8962 29.5597 22.9098 29.5677ZM21.9664 57.2577H23.9316C24.5021 57.2678 25.054 57.0301 25.4604 56.5929C25.6602 56.3783 25.8177 56.1221 25.9234 55.84C26.0292 55.5578 26.081 55.2554 26.0757 54.9511V34.4429C26.0809 34.1377 26.029 33.8344 25.9233 33.5513C25.8176 33.2682 25.6602 33.011 25.4604 32.795C25.2599 32.5787 25.0213 32.408 24.7587 32.2928C24.4961 32.1776 24.2149 32.1202 23.9316 32.1242H21.9645C21.6811 32.1202 21.3999 32.1776 21.1374 32.2928C20.8748 32.408 20.6362 32.5787 20.4356 32.795C20.2356 33.0112 20.0781 33.2687 19.9724 33.5522C19.8666 33.8357 19.8149 34.1394 19.8203 34.445V54.9511C19.8092 55.5655 20.031 56.1598 20.4356 56.5949C20.8402 57.0301 21.3921 57.2678 21.9645 57.2577H21.9664ZM70.1729 79.9315C71.1171 79.9307 72.0234 79.5301 72.6975 78.8157C73.3716 78.1013 73.7598 77.1299 73.7788 76.1099C73.7894 75.5917 73.6995 75.0767 73.5148 74.5983C73.3302 74.1199 73.0549 73.6885 72.7067 73.3318L67.5383 67.8583C67.205 67.4822 66.8034 67.1844 66.3588 66.9834C65.9142 66.7823 65.4361 66.6824 64.9542 66.6899C64.0109 66.6943 63.1065 67.096 62.4331 67.8097C61.7598 68.5233 61.3705 69.4926 61.3482 70.5115C61.3296 71.5611 61.723 72.5703 62.4334 73.2915L67.5234 78.8477C68.2077 79.581 69.1437 79.9778 70.1095 79.9456L70.1729 79.9315ZM65.0828 13.1733C66.0542 13.1874 66.9902 12.7704 67.667 12.021L72.8354 6.53133C73.5252 5.82624 73.9112 4.84515 73.9074 3.82377C73.8992 3.30748 73.7956 2.79815 73.6029 2.32563C73.4101 1.85311 73.1321 1.42688 72.785 1.0719C72.4369 0.71619 72.0269 0.43852 71.5789 0.254915C71.1309 0.0713109 70.6536 -0.0145906 70.1747 0.00216967C69.6964 -0.0119017 69.2204 0.0794406 68.7758 0.270627C68.3312 0.461814 67.9273 0.748839 67.5887 1.1142L62.4986 6.66832C62.1458 7.02226 61.8667 7.45312 61.6796 7.93239C61.4925 8.41166 61.4018 8.9284 61.4135 9.4484C61.4363 10.4666 61.8254 11.435 62.4984 12.1482C63.1713 12.8614 64.075 13.263 65.0175 13.268L65.0828 13.1733ZM8.69677 13.1733C9.63999 13.1689 10.5444 12.7671 11.2178 12.0535C11.8912 11.3398 12.2804 10.3706 12.3027 9.3517C12.3049 8.84386 12.2096 8.34103 12.0229 7.875C11.8361 7.40897 11.5619 6.98986 11.2176 6.64415L6.1275 1.1142C5.79652 0.756851 5.40299 0.474296 4.96987 0.283024C4.53676 0.0917516 4.07272 -0.00440815 3.60484 0.00015512C2.66061 0.00153951 1.75448 0.402625 1.08074 1.11741C0.407006 1.83219 0.019303 2.80375 0.000770596 3.82377C-0.0197388 4.87134 0.36994 5.87862 1.07472 6.60184L6.2431 12.158C6.91991 12.9094 7.85402 13.3264 8.82729 13.3123L8.69677 13.1733ZM3.6067 79.9315C4.08394 79.9483 4.55933 79.8596 5.00371 79.6708C5.44808 79.482 5.85207 79.1971 6.19089 78.8336L11.281 73.2754C11.9932 72.5562 12.3866 71.5469 12.3661 70.4974C12.3433 69.4796 11.9544 68.5114 11.2819 67.7983C10.6094 67.0852 9.70615 66.6832 8.76389 66.6778C7.81114 66.6818 6.90126 67.1008 6.24496 67.8442L1.07472 73.4003C0.36994 74.1256 -0.0197388 75.1328 0.000770596 76.1804C0.0202726 77.2001 0.408657 78.1709 1.08269 78.8849C1.75673 79.5989 2.66279 79.9992 3.6067 80" fill="#5500FF"/>
</svg>
